<?xml version="1.0" standalone="no"?>
<!DOCTYPE svg PUBLIC "-//W3C//DTD SVG 20010904//EN"
 "http://www.w3.org/TR/2001/REC-SVG-20010904/DTD/svg10.dtd">
<svg version="1.0" xmlns="http://www.w3.org/2000/svg"
 width="700.000000pt" height="700.000000pt" viewBox="0 0 700.000000 700.000000"
 preserveAspectRatio="xMidYMid meet">
<metadata>
Created by potrace 1.14, written by Peter Selinger 2001-2017
</metadata>
<g transform="translate(0.000000,700.000000) scale(0.100000,-0.100000)"
fill="#000000" stroke="none">
<path d="M280 3861 l0 -481 48 -1 c71 0 171 -30 236 -69 32 -19 126 -95 209
-168 312 -274 468 -367 727 -436 141 -38 261 -49 453 -43 403 13 657 129 1047
477 215 192 288 229 457 238 163 8 266 -21 379 -105 28 -21 113 -93 190 -161
292 -257 489 -365 785 -429 120 -26 468 -26 588 0 135 29 239 65 356 123 140
69 246 146 437 315 234 206 301 244 451 258 l72 6 3 479 2 479 -112 -6 c-187
-11 -344 -51 -515 -132 -159 -75 -266 -152 -498 -358 -200 -179 -276 -217
-446 -225 -136 -6 -232 14 -318 66 -34 20 -136 102 -227 182 -209 183 -310
256 -449 324 -224 111 -362 141 -650 141 -236 0 -314 -12 -489 -72 -121 -42
-194 -78 -306 -151 -100 -64 -127 -86 -314 -250 -247 -216 -290 -237 -501
-237 -202 0 -259 25 -451 191 -285 247 -356 299 -509 377 -170 86 -351 135
-542 144 l-113 6 0 -482z"/>
</g>
</svg>
