<svg width="50" height="50" viewBox="0 0 50 50" fill="none" xmlns="http://www.w3.org/2000/svg">
<path d="M48 19C43.8926 19 41.6994 20.9805 40.0954 22.4323C38.8048 23.5948 38.1584 24.182 36.5111 24.182C34.8746 24.182 34.2293 23.5948 32.9376 22.4323C31.3346 20.9805 29.1415 19 25.033 19C20.9255 19 18.7324 20.9805 17.1294 22.4323C15.8377 23.5948 15.1924 24.182 13.544 24.182C11.8968 24.182 11.2071 23.6067 9.90356 22.4323C8.30059 20.9805 6.09662 19 2 19V25.818C3.63649 25.818 4.28179 26.4052 5.58428 27.5688C7.18725 29.0195 9.38041 31 13.4889 31C17.5974 31 19.7895 29.0195 21.3925 27.5688C22.695 26.3944 23.3414 25.818 24.9778 25.818C26.6143 25.818 27.2596 26.4052 28.5621 27.5688C30.1651 29.0195 32.3582 31 36.4668 31C40.5742 31 42.7673 29.0195 44.3703 27.5688C45.662 26.3944 46.3192 25.818 47.9557 25.818L48 19Z" fill="white"/>
<path d="M48 19C43.8926 19 41.6994 20.9805 40.0954 22.4323C38.8048 23.5948 38.1584 24.182 36.5111 24.182C34.8746 24.182 34.2293 23.5948 32.9376 22.4323C31.3346 20.9805 29.1415 19 25.033 19C20.9255 19 18.7324 20.9805 17.1294 22.4323C15.8377 23.5948 15.1924 24.182 13.544 24.182C11.8968 24.182 11.2071 23.6067 9.90356 22.4323C8.30059 20.9805 6.09662 19 2 19V25.818C3.63649 25.818 4.28179 26.4052 5.58428 27.5688C7.18725 29.0195 9.38041 31 13.4889 31C17.5974 31 19.7895 29.0195 21.3925 27.5688C22.695 26.3944 23.3414 25.818 24.9778 25.818C26.6143 25.818 27.2596 26.4052 28.5621 27.5688C30.1651 29.0195 32.3582 31 36.4668 31C40.5742 31 42.7673 29.0195 44.3703 27.5688C45.662 26.3944 46.3192 25.818 47.9557 25.818L48 19Z" fill="url(#paint0_linear)"/>
<defs>
<linearGradient id="paint0_linear" x1="1.96621" y1="24.8723" x2="47.9662" y2="24.8723" gradientUnits="userSpaceOnUse">
<stop stop-color="#4345F8"/>
<stop offset="1" stop-color="#BCACFB"/>
</linearGradient>
</defs>
</svg>
